<svg width="26" height="24" viewBox="0 0 26 24" fill="none" xmlns="http://www.w3.org/2000/svg">
<path d="M17.7363 23.9629C17.0332 23.9629 16.4993 23.7806 16.1348 23.416C15.7767 23.0514 15.5618 22.4883 15.4902 21.7266L14.4746 11.2285C14.4421 10.89 14.5169 10.6133 14.6992 10.3984C14.8815 10.1836 15.1387 10.0762 15.4707 10.0762H24.4551C24.7871 10.0762 25.0443 10.1836 25.2266 10.3984C25.4089 10.6068 25.4837 10.8835 25.4512 11.2285L24.4453 21.7266C24.3672 22.4883 24.1458 23.0514 23.7812 23.416C23.4232 23.7806 22.8958 23.9629 22.1992 23.9629H17.7363ZM17.8145 22.1758H22.1113C22.4499 22.1758 22.6387 21.9935 22.6777 21.6289L23.6055 11.8633H16.3301L17.248 21.6289C17.2871 21.9935 17.4759 22.1758 17.8145 22.1758ZM19.2598 10.6523L19.3477 9.55859C19.3932 9.0638 19.5072 8.65039 19.6895 8.31836C19.8783 7.97982 20.168 7.66732 20.5586 7.38086L23.7031 5.10547C23.9245 4.94271 24.1361 4.88737 24.3379 4.93945C24.5462 4.98503 24.7122 5.09245 24.8359 5.26172C24.9596 5.42448 25.0117 5.61003 24.9922 5.81836C24.9792 6.02018 24.8652 6.19922 24.6504 6.35547L21.3887 8.68945C21.2194 8.81315 21.0957 8.94661 21.0176 9.08984C20.946 9.23307 20.9036 9.42188 20.8906 9.65625L20.8223 10.6523H19.2598ZM3.625 22.2734C2.60286 22.2734 1.83138 22.013 1.31055 21.4922C0.789714 20.9779 0.529297 20.2161 0.529297 19.207V8.97266C0.529297 8.61458 0.558594 8.33138 0.617188 8.12305C0.675781 7.91471 0.786458 7.70312 0.949219 7.48828L2.84375 4.96875V3.2793C2.84375 2.52409 3.05534 1.94466 3.47852 1.54102C3.90169 1.13737 4.50716 0.935547 5.29492 0.935547H13.3711C14.1589 0.935547 14.7643 1.13737 15.1875 1.54102C15.6107 1.94466 15.8223 2.52409 15.8223 3.2793V4.96875L17.7266 7.48828C17.8633 7.67057 17.9577 7.8431 18.0098 8.00586C18.0684 8.16862 18.1009 8.38346 18.1074 8.65039H16.3496C16.3171 8.54622 16.278 8.46484 16.2324 8.40625C16.1868 8.34766 16.125 8.28581 16.0469 8.2207L14.25 5.85742C14.1719 5.74023 14.1165 5.63281 14.084 5.53516C14.0514 5.4375 14.0352 5.3138 14.0352 5.16406V3.54297C14.0352 2.99609 13.7812 2.72266 13.2734 2.72266H5.40234C4.88802 2.72266 4.63086 2.99609 4.63086 3.54297V5.16406C4.63086 5.3138 4.61458 5.4375 4.58203 5.53516C4.55599 5.63281 4.50065 5.74023 4.41602 5.85742L2.52148 8.35742C2.45638 8.44857 2.41406 8.53971 2.39453 8.63086C2.375 8.72201 2.36523 8.85221 2.36523 9.02148V19.0508C2.36523 19.9753 2.82096 20.4375 3.73242 20.4375H13.9375L14.0742 21.8633C14.0807 21.9349 14.0872 22.0033 14.0938 22.0684C14.1003 22.14 14.11 22.2083 14.123 22.2734H3.625ZM6.74023 5.47656C6.56445 5.47656 6.41146 5.41146 6.28125 5.28125C6.15104 5.15104 6.08594 4.99479 6.08594 4.8125C6.08594 4.63021 6.15104 4.47396 6.28125 4.34375C6.41146 4.20703 6.56445 4.13867 6.74023 4.13867H11.9062C12.082 4.13867 12.235 4.20703 12.3652 4.34375C12.4954 4.47396 12.5605 4.63021 12.5605 4.8125C12.5605 4.99479 12.4954 5.15104 12.3652 5.28125C12.2415 5.41146 12.0885 5.47656 11.9062 5.47656H6.74023Z" fill="#00A3FF"/>
</svg>
