<svg width="30" height="16" viewBox="0 0 30 16" fill="none" xmlns="http://www.w3.org/2000/svg">
<path d="M1.21094 12.5508C0.957031 12.375 0.78776 12.1732 0.703125 11.9453C0.61849 11.7109 0.61849 11.4766 0.703125 11.2422C0.78776 11.0078 0.957031 10.8027 1.21094 10.627L5.71289 7.49219C5.98633 7.29688 6.29883 7.20247 6.65039 7.20898C7.00195 7.20898 7.32096 7.30664 7.60742 7.50195L12.0898 10.627C12.3372 10.8027 12.5033 11.0078 12.5879 11.2422C12.6725 11.4766 12.6725 11.7109 12.5879 11.9453C12.5033 12.1732 12.3372 12.375 12.0898 12.5508L7.65625 15.6367C7.35026 15.8451 7.01823 15.9525 6.66016 15.959C6.30208 15.972 5.98633 15.8776 5.71289 15.6758L1.21094 12.5508ZM9.56055 6.27148C9.30664 6.0957 9.13737 5.89388 9.05273 5.66602C8.97461 5.43164 8.97461 5.19727 9.05273 4.96289C9.13737 4.72852 9.30664 4.52344 9.56055 4.34766L14.0625 1.21289C14.3424 1.01758 14.6549 0.923177 15 0.929688C15.3516 0.929688 15.6706 1.02734 15.957 1.22266L20.4395 4.34766C20.6868 4.52344 20.8529 4.72852 20.9375 4.96289C21.0221 5.19727 21.0221 5.43164 20.9375 5.66602C20.8529 5.89388 20.6868 6.0957 20.4395 6.27148L16.0059 9.34766C15.6999 9.5625 15.3678 9.67643 15.0098 9.68945C14.6582 9.69596 14.3424 9.59831 14.0625 9.39648L9.56055 6.27148ZM17.9199 12.5508C17.666 12.375 17.4967 12.1732 17.4121 11.9453C17.3275 11.7109 17.3275 11.4766 17.4121 11.2422C17.4967 11.0078 17.666 10.8027 17.9199 10.627L22.4121 7.49219C22.6921 7.29688 23.0046 7.20247 23.3496 7.20898C23.7012 7.20898 24.0202 7.30664 24.3066 7.50195L28.7988 10.627C29.0462 10.8027 29.209 11.0078 29.2871 11.2422C29.3717 11.4766 29.3717 11.7109 29.2871 11.9453C29.209 12.1732 29.0462 12.375 28.7988 12.5508L24.3066 15.666C24.0202 15.8678 23.6979 15.9655 23.3398 15.959C22.9883 15.959 22.6628 15.8548 22.3633 15.6465L17.9199 12.5508Z" fill="#00A3FF"/>
</svg>
