<svg width="28" height="20" viewBox="0 0 28 20" fill="none" xmlns="http://www.w3.org/2000/svg">
<path d="M13.0039 19.0703C11.3438 19.0703 10.5137 18.5104 10.5137 17.3906C10.5137 16.7266 10.7122 16.0299 11.1094 15.3008C11.513 14.5716 12.0892 13.8913 12.8379 13.2598C13.5931 12.6283 14.498 12.1172 15.5527 11.7266C16.6074 11.3294 17.7891 11.1309 19.0977 11.1309C20.4062 11.1309 21.5879 11.3294 22.6426 11.7266C23.7038 12.1172 24.6087 12.6283 25.3574 13.2598C26.1061 13.8913 26.679 14.5716 27.0762 15.3008C27.4798 16.0299 27.6816 16.7266 27.6816 17.3906C27.6816 18.5104 26.8483 19.0703 25.1816 19.0703H13.0039ZM12.6816 17.3809H25.5039C25.6211 17.3809 25.7025 17.3613 25.748 17.3223C25.8001 17.2832 25.8262 17.2181 25.8262 17.127C25.8262 16.7493 25.6797 16.3197 25.3867 15.8379C25.0938 15.3496 24.6576 14.8776 24.0781 14.4219C23.5052 13.9596 22.7988 13.5788 21.959 13.2793C21.1257 12.9733 20.1719 12.8203 19.0977 12.8203C18.0169 12.8203 17.0599 12.9733 16.2266 13.2793C15.3932 13.5788 14.6901 13.9596 14.1172 14.4219C13.5443 14.8776 13.1081 15.3496 12.8086 15.8379C12.5156 16.3197 12.3691 16.7493 12.3691 17.127C12.3691 17.2181 12.3919 17.2832 12.4375 17.3223C12.4896 17.3613 12.571 17.3809 12.6816 17.3809ZM19.0977 9.98828C18.3164 9.98828 17.6003 9.77995 16.9492 9.36328C16.3047 8.94661 15.7904 8.38997 15.4062 7.69336C15.0221 6.99023 14.8301 6.21549 14.8301 5.36914C14.8301 4.53581 15.0221 3.77734 15.4062 3.09375C15.7904 2.40365 16.3047 1.85352 16.9492 1.44336C17.6003 1.0332 18.3164 0.828125 19.0977 0.828125C19.8919 0.828125 20.6113 1.02995 21.2559 1.43359C21.9069 1.83724 22.4212 2.38086 22.7988 3.06445C23.1829 3.74805 23.375 4.50977 23.375 5.34961C23.375 6.20247 23.1829 6.98047 22.7988 7.68359C22.4147 8.38672 21.8971 8.94661 21.2461 9.36328C20.6016 9.77995 19.8854 9.98828 19.0977 9.98828ZM19.0977 8.28906C19.5599 8.28906 19.9798 8.15885 20.3574 7.89844C20.735 7.63802 21.0378 7.28646 21.2656 6.84375C21.4935 6.39453 21.6074 5.89648 21.6074 5.34961C21.6074 4.81576 21.4935 4.33398 21.2656 3.9043C21.0378 3.47461 20.735 3.13607 20.3574 2.88867C19.9798 2.64128 19.5599 2.51758 19.0977 2.51758C18.6484 2.51758 18.235 2.64453 17.8574 2.89844C17.4798 3.14583 17.1771 3.48763 16.9492 3.92383C16.7214 4.35352 16.6074 4.83529 16.6074 5.36914C16.6074 5.91602 16.7214 6.41081 16.9492 6.85352C17.1771 7.29622 17.4798 7.64779 17.8574 7.9082C18.2415 8.16211 18.6549 8.28906 19.0977 8.28906ZM2.4082 19.0703C1.71159 19.0703 1.1875 18.9238 0.835938 18.6309C0.484375 18.3379 0.308594 17.8984 0.308594 17.3125C0.308594 16.5052 0.500651 15.7305 0.884766 14.9883C1.27539 14.2396 1.8125 13.5755 2.49609 12.9961C3.17969 12.4167 3.97396 11.9609 4.87891 11.6289C5.78385 11.2904 6.75065 11.1211 7.7793 11.1211C8.28711 11.1211 8.79167 11.1667 9.29297 11.2578C9.79427 11.3424 10.2793 11.4727 10.748 11.6484C11.2233 11.8242 11.6693 12.0391 12.0859 12.293C11.819 12.4688 11.5814 12.6608 11.373 12.8691C11.1647 13.071 10.9824 13.2891 10.8262 13.5234C10.5397 13.3607 10.2305 13.2272 9.89844 13.123C9.56641 13.0124 9.22135 12.9277 8.86328 12.8691C8.50521 12.804 8.14388 12.7715 7.7793 12.7715C7.00456 12.7715 6.26888 12.8952 5.57227 13.1426C4.88216 13.3835 4.27018 13.7122 3.73633 14.1289C3.20898 14.5391 2.79232 15.0078 2.48633 15.5352C2.18685 16.056 2.03711 16.5964 2.03711 17.1562C2.03711 17.2474 2.05664 17.3125 2.0957 17.3516C2.14128 17.3906 2.21289 17.4102 2.31055 17.4102H9.17578C9.14323 17.7357 9.20508 18.0547 9.36133 18.3672C9.51758 18.6862 9.72917 18.9206 9.99609 19.0703H2.4082ZM7.78906 10.0957C7.10547 10.0957 6.48047 9.91341 5.91406 9.54883C5.35417 9.18424 4.90495 8.69596 4.56641 8.08398C4.23438 7.46549 4.06836 6.7819 4.06836 6.0332C4.06836 5.30404 4.23438 4.63997 4.56641 4.04102C4.90495 3.43555 5.35417 2.95378 5.91406 2.5957C6.48047 2.23112 7.10547 2.04883 7.78906 2.04883C8.47266 2.04883 9.0944 2.22786 9.6543 2.58594C10.2207 2.94401 10.6699 3.42253 11.002 4.02148C11.3405 4.62044 11.5098 5.28776 11.5098 6.02344C11.5098 6.76562 11.3405 7.44922 11.002 8.07422C10.6634 8.69271 10.2142 9.18424 9.6543 9.54883C9.0944 9.91341 8.47266 10.0957 7.78906 10.0957ZM7.78906 8.42578C8.16016 8.42578 8.50195 8.31836 8.81445 8.10352C9.12695 7.88867 9.3776 7.60221 9.56641 7.24414C9.75521 6.87956 9.84961 6.47266 9.84961 6.02344C9.84961 5.58724 9.75521 5.19661 9.56641 4.85156C9.38411 4.5 9.13672 4.22331 8.82422 4.02148C8.51172 3.81966 8.16667 3.71875 7.78906 3.71875C7.41146 3.71875 7.06641 3.82292 6.75391 4.03125C6.44792 4.23307 6.20052 4.50977 6.01172 4.86133C5.82943 5.21289 5.73828 5.60352 5.73828 6.0332C5.73828 6.47591 5.82943 6.87956 6.01172 7.24414C6.20052 7.60872 6.45117 7.89844 6.76367 8.11328C7.07617 8.32161 7.41797 8.42578 7.78906 8.42578Z" fill="#00A3FF"/>
</svg>
