<svg width="24" height="22" viewBox="0 0 24 22" fill="none" xmlns="http://www.w3.org/2000/svg">
<path d="M5.22266 21.5293C4.98828 21.36 4.84505 21.1289 4.79297 20.8359C4.7474 20.5495 4.78971 20.2142 4.91992 19.8301L6.93164 13.873L1.81445 10.2012C1.47591 9.96029 1.24154 9.71289 1.11133 9.45898C0.98112 9.19857 0.961589 8.92839 1.05273 8.64844C1.14388 8.375 1.31641 8.17318 1.57031 8.04297C1.83073 7.90625 2.16602 7.84115 2.57617 7.84766L8.85547 7.88672L10.7598 1.90039C10.89 1.50977 11.056 1.21354 11.2578 1.01172C11.4661 0.803385 11.7135 0.699219 12 0.699219C12.2865 0.699219 12.5306 0.803385 12.7324 1.01172C12.9408 1.21354 13.11 1.50977 13.2402 1.90039L15.1445 7.88672L21.4141 7.84766C21.8307 7.84115 22.166 7.90625 22.4199 8.04297C22.6803 8.17318 22.8561 8.375 22.9473 8.64844C23.0384 8.92839 23.0189 9.19857 22.8887 9.45898C22.7585 9.71289 22.5241 9.96029 22.1855 10.2012L17.0684 13.873L19.0801 19.8301C19.2103 20.2142 19.2493 20.5495 19.1973 20.8359C19.1517 21.1289 19.0117 21.36 18.7773 21.5293C18.5495 21.7116 18.2891 21.7767 17.9961 21.7246C17.7096 21.6725 17.4004 21.526 17.0684 21.2852L12 17.5645L6.92188 21.2852C6.59635 21.526 6.28711 21.6725 5.99414 21.7246C5.70768 21.7767 5.45052 21.7116 5.22266 21.5293Z" fill="#00A3FF"/>
</svg>
