<svg width="23" height="21" viewBox="0 0 23 21" fill="none" xmlns="http://www.w3.org/2000/svg">
<path d="M11.5264 4.59863C11.1631 4.59863 10.8291 4.51074 10.5244 4.33496C10.2256 4.15332 9.98535 3.91309 9.80371 3.61426C9.62793 3.30957 9.54004 2.97559 9.54004 2.6123C9.54004 2.25488 9.62793 1.92676 9.80371 1.62793C9.98535 1.3291 10.2256 1.0918 10.5244 0.916016C10.8291 0.734375 11.1631 0.643555 11.5264 0.643555C11.8838 0.643555 12.2119 0.734375 12.5107 0.916016C12.8096 1.0918 13.0469 1.3291 13.2227 1.62793C13.4043 1.92676 13.4951 2.25488 13.4951 2.6123C13.4951 2.97559 13.4043 3.30957 13.2227 3.61426C13.0469 3.91309 12.8096 4.15332 12.5107 4.33496C12.2119 4.51074 11.8838 4.59863 11.5264 4.59863ZM8.57324 16.2002C8.38574 16.0127 8.29199 15.793 8.29199 15.541C8.29199 15.2832 8.38574 15.0605 8.57324 14.873L10.7002 12.7461L6.57812 12.5264C6.10352 12.4971 5.69629 12.3682 5.35645 12.1396C5.02246 11.9053 4.77051 11.6094 4.60059 11.252C4.43066 10.8945 4.35742 10.5137 4.38086 10.1094C4.41016 9.69922 4.54785 9.30957 4.79395 8.94043L6.89453 5.77637C6.96484 5.67676 6.98828 5.57422 6.96484 5.46875C6.94727 5.35742 6.88867 5.2666 6.78906 5.19629L5.33887 4.23828H1.52441C1.27246 4.23828 1.05273 4.14746 0.865234 3.96582C0.683594 3.77832 0.592773 3.55859 0.592773 3.30664C0.592773 3.04297 0.683594 2.81738 0.865234 2.62988C1.05273 2.44238 1.27246 2.34863 1.52441 2.34863H5.61133C5.70508 2.34863 5.7959 2.36621 5.88379 2.40137C5.97754 2.43066 6.05957 2.46875 6.12988 2.51562L14.04 7.78906H17.8457C18.1035 7.78906 18.3232 7.88281 18.5049 8.07031C18.6924 8.25195 18.7861 8.47461 18.7861 8.73828C18.7861 8.99023 18.6924 9.20996 18.5049 9.39746C18.3232 9.58496 18.1035 9.67871 17.8457 9.67871H13.7676C13.6738 9.67871 13.583 9.66406 13.4951 9.63477C13.4072 9.59961 13.3281 9.55859 13.2578 9.51172L10.665 7.79785C10.5713 7.72754 10.4688 7.7041 10.3574 7.72754C10.252 7.74512 10.1641 7.80664 10.0938 7.91211L8.63477 10.1094C8.56445 10.209 8.54395 10.2998 8.57324 10.3818C8.60254 10.4639 8.69336 10.5107 8.8457 10.5225L12.959 10.9707C13.2227 10.9941 13.4307 11.0996 13.583 11.2871C13.7354 11.4746 13.8115 11.6885 13.8115 11.9287C13.8174 12.1631 13.7324 12.3652 13.5566 12.5352L9.90039 16.2002C9.71289 16.3818 9.49023 16.4727 9.23242 16.4727C8.98047 16.4727 8.76074 16.3818 8.57324 16.2002ZM5.18066 13.0537C5.37402 13.1592 5.58496 13.2441 5.81348 13.3086C6.04199 13.373 6.28516 13.4111 6.54297 13.4229L7.5625 13.4668L7.07031 16.4111C7.05273 16.5049 7.0293 16.6045 7 16.71C6.9707 16.8096 6.91504 16.9033 6.83301 16.9912L4.12598 20.1641C3.96777 20.3398 3.75977 20.4482 3.50195 20.4893C3.25 20.5303 3.00977 20.46 2.78125 20.2783C2.57617 20.1025 2.46484 19.8799 2.44727 19.6104C2.42969 19.3467 2.50586 19.1152 2.67578 18.916L5.18066 16.0244V13.0537ZM17.8105 6.24219C17.8105 6.02539 17.9131 5.8291 18.1182 5.65332C18.3291 5.47754 18.6104 5.33691 18.9619 5.23145C19.3135 5.12598 19.6973 5.07324 20.1133 5.07324C20.5352 5.07324 20.9189 5.12598 21.2646 5.23145C21.6104 5.33691 21.8857 5.47754 22.0908 5.65332C22.3018 5.8291 22.4072 6.02539 22.4072 6.24219C22.4072 6.45898 22.3018 6.6582 22.0908 6.83984C21.8857 7.01562 21.6104 7.15625 21.2646 7.26172C20.9189 7.36133 20.5352 7.41113 20.1133 7.41113C19.6973 7.41113 19.3135 7.36133 18.9619 7.26172C18.6104 7.15625 18.3291 7.01562 18.1182 6.83984C17.9131 6.6582 17.8105 6.45898 17.8105 6.24219Z" fill="#00A3FF"/>
</svg>
