<svg width="14" height="21" viewBox="0 0 14 21" fill="none" xmlns="http://www.w3.org/2000/svg">
<path d="M7 20.5078C5.60677 20.5013 4.38932 20.2148 3.34766 19.6484C2.30599 19.0885 1.49544 18.3008 0.916016 17.2852C0.343099 16.263 0.0566406 15.0749 0.0566406 13.7207C0.0566406 13.0697 0.128255 12.4251 0.271484 11.7871C0.414714 11.1426 0.597005 10.5273 0.818359 9.94141C1.03971 9.35547 1.25781 8.81836 1.47266 8.33008C1.99349 7.17122 2.62174 5.98307 3.35742 4.76562C4.0931 3.54818 4.81576 2.38932 5.52539 1.28906C5.7207 1.0026 5.93555 0.78125 6.16992 0.625C6.4043 0.46224 6.68099 0.380859 7 0.380859C7.31901 0.380859 7.5957 0.46224 7.83008 0.625C8.07096 0.78125 8.28581 1.0026 8.47461 1.28906C9.17773 2.38281 9.89388 3.53516 10.623 4.74609C11.3587 5.95052 11.9837 7.12891 12.498 8.28125C12.7194 8.77604 12.9408 9.31966 13.1621 9.91211C13.39 10.5046 13.5755 11.1263 13.7188 11.7773C13.8685 12.4219 13.9434 13.0697 13.9434 13.7207C13.9434 15.0749 13.6536 16.263 13.0742 17.2852C12.4948 18.3008 11.6842 19.0885 10.6426 19.6484C9.60091 20.2148 8.38672 20.5013 7 20.5078ZM7 18.5547C8.0026 18.5547 8.87826 18.3529 9.62695 17.9492C10.3757 17.5456 10.9583 16.9824 11.375 16.2598C11.7917 15.5306 12 14.6842 12 13.7207C12 12.9395 11.8698 12.1647 11.6094 11.3965C11.349 10.6283 11.069 9.9056 10.7695 9.22852C10.2617 8.04362 9.68229 6.93685 9.03125 5.9082C8.38672 4.87956 7.74219 3.88346 7.09766 2.91992C7.07161 2.86784 7.03906 2.8418 7 2.8418C6.96745 2.8418 6.9349 2.86784 6.90234 2.91992C6.2513 3.88997 5.60026 4.89258 4.94922 5.92773C4.30469 6.95638 3.72526 8.06966 3.21094 9.26758C2.91146 9.93164 2.63477 10.6478 2.38086 11.416C2.13346 12.1777 2.00977 12.946 2.00977 13.7207C2.00977 14.6842 2.21484 15.5306 2.625 16.2598C3.04167 16.9824 3.62435 17.5456 4.37305 17.9492C5.12174 18.3529 5.9974 18.5547 7 18.5547Z" fill="#00A3FF"/>
</svg>
