<svg width="20" height="19" viewBox="0 0 20 19" fill="none" xmlns="http://www.w3.org/2000/svg">
<path d="M9.99121 18.7334C8.74902 18.7334 7.58008 18.4961 6.48438 18.0215C5.38867 17.5527 4.42188 16.8994 3.58398 16.0615C2.75195 15.2236 2.09863 14.2568 1.62402 13.1611C1.14941 12.0654 0.912109 10.8965 0.912109 9.6543C0.912109 8.41211 1.14941 7.24316 1.62402 6.14746C2.09863 5.05176 2.75195 4.08789 3.58398 3.25586C4.42188 2.41797 5.38574 1.76172 6.47559 1.28711C7.57129 0.8125 8.74023 0.575195 9.98242 0.575195C11.2305 0.575195 12.4023 0.8125 13.498 1.28711C14.5938 1.76172 15.5605 2.41797 16.3984 3.25586C17.2363 4.08789 17.8926 5.05176 18.3672 6.14746C18.8418 7.24316 19.0791 8.41211 19.0791 9.6543C19.0791 10.8965 18.8418 12.0654 18.3672 13.1611C17.8926 14.2568 17.2363 15.2236 16.3984 16.0615C15.5605 16.8994 14.5938 17.5527 13.498 18.0215C12.4023 18.4961 11.2334 18.7334 9.99121 18.7334ZM9.99121 16.9404C11.0049 16.9404 11.9512 16.7529 12.8301 16.3779C13.709 16.0029 14.4824 15.4814 15.1504 14.8135C15.8184 14.1455 16.3398 13.3721 16.7148 12.4932C17.0898 11.6143 17.2773 10.668 17.2773 9.6543C17.2773 8.64648 17.0898 7.70312 16.7148 6.82422C16.3398 5.93945 15.8184 5.16309 15.1504 4.49512C14.4824 3.82715 13.7061 3.30566 12.8213 2.93066C11.9424 2.55566 10.9961 2.36816 9.98242 2.36816C8.97461 2.36816 8.02832 2.55566 7.14355 2.93066C6.26465 3.30566 5.49414 3.82715 4.83203 4.49512C4.16992 5.16309 3.65137 5.93945 3.27637 6.82422C2.90137 7.70312 2.71387 8.64648 2.71387 9.6543C2.71387 10.668 2.90137 11.6143 3.27637 12.4932C3.65137 13.3721 4.16992 14.1455 4.83203 14.8135C5.5 15.4814 6.27344 16.0029 7.15234 16.3779C8.03711 16.7529 8.9834 16.9404 9.99121 16.9404ZM8.17188 15.2529C7.9668 15.2529 7.80273 15.1973 7.67969 15.0859C7.5625 14.9746 7.50684 14.8223 7.5127 14.6289L7.60059 9.22363C7.60059 9.13574 7.58301 9.0625 7.54785 9.00391C7.51855 8.94531 7.46582 8.89844 7.38965 8.86328C7.06738 8.72266 6.83301 8.55273 6.68652 8.35352C6.54004 8.1543 6.47559 7.83496 6.49316 7.39551L6.625 4.48633C6.64258 4.24609 6.75684 4.12598 6.96777 4.12598C7.18457 4.12598 7.29297 4.24902 7.29297 4.49512L7.25781 7.3252C7.25781 7.51855 7.34277 7.61523 7.5127 7.61523C7.7002 7.61523 7.79395 7.52441 7.79395 7.34277L7.84668 4.40723C7.84668 4.17871 7.95508 4.06445 8.17188 4.06445C8.40039 4.06445 8.51465 4.17871 8.51465 4.40723L8.55859 7.34277C8.55859 7.52441 8.64941 7.61523 8.83105 7.61523C9.0127 7.61523 9.10352 7.51855 9.10352 7.3252L9.06836 4.49512C9.06836 4.24902 9.17383 4.12598 9.38477 4.12598C9.5957 4.12598 9.70703 4.24609 9.71875 4.48633L9.85938 7.39551C9.88281 7.83496 9.82129 8.1543 9.6748 8.35352C9.52832 8.55273 9.29102 8.72266 8.96289 8.86328C8.82227 8.93359 8.75195 9.05371 8.75195 9.22363L8.83984 14.6289C8.8457 14.8223 8.78711 14.9746 8.66406 15.0859C8.54688 15.1973 8.38281 15.2529 8.17188 15.2529ZM11.5381 11.1572C11.5439 10.9756 11.4619 10.8262 11.292 10.709L11.0459 10.5332C10.917 10.4453 10.8203 10.3398 10.7559 10.2168C10.6914 10.0938 10.6592 9.94727 10.6592 9.77734V9.45215C10.6592 8.81934 10.7148 8.18359 10.8262 7.54492C10.9375 6.90039 11.0898 6.30273 11.2832 5.75195C11.4766 5.20117 11.7051 4.74707 11.9688 4.38965C12.1152 4.17285 12.2676 4.06445 12.4258 4.06445C12.5195 4.06445 12.6016 4.09668 12.6719 4.16113C12.7422 4.21973 12.7773 4.31055 12.7773 4.43359V14.6465C12.7773 14.8398 12.7158 14.9893 12.5928 15.0947C12.4756 15.2002 12.3115 15.2529 12.1006 15.2529C11.8955 15.2529 11.7314 15.1973 11.6084 15.0859C11.4854 14.9746 11.4268 14.8135 11.4326 14.6025L11.5381 11.1572Z" fill="#00A3FF"/>
</svg>
