<svg width="22" height="19" viewBox="0 0 22 19" fill="none" xmlns="http://www.w3.org/2000/svg">
<path d="M1.26367 10.3203C0.977214 10.3203 0.736328 10.2227 0.541016 10.0273C0.352214 9.83203 0.257812 9.59115 0.257812 9.30469V8.24023C0.257812 7.30273 0.466146 6.49544 0.882812 5.81836C1.30599 5.13477 1.89844 4.61068 2.66016 4.24609C3.42188 3.88151 4.32357 3.69922 5.36523 3.69922H12.7578V1.50195C12.7578 1.26107 12.8229 1.07878 12.9531 0.955078C13.0898 0.82487 13.2786 0.759766 13.5195 0.759766C13.6302 0.759766 13.7311 0.776042 13.8223 0.808594C13.9199 0.841146 14.0078 0.889974 14.0859 0.955078L17.9238 4.1582C18.1126 4.31445 18.2038 4.5 18.1973 4.71484C18.1973 4.92318 18.1061 5.10221 17.9238 5.25195L14.0859 8.44531C14.0078 8.51693 13.9199 8.57227 13.8223 8.61133C13.7311 8.64388 13.6302 8.66016 13.5195 8.66016C13.2786 8.66016 13.0898 8.59505 12.9531 8.46484C12.8229 8.33464 12.7578 8.15234 12.7578 7.91797V5.66211H5.20898C4.31055 5.66211 3.5944 5.91276 3.06055 6.41406C2.5332 6.91536 2.26953 7.58919 2.26953 8.43555V9.30469C2.26953 9.59115 2.17188 9.83203 1.97656 10.0273C1.78776 10.2227 1.55013 10.3203 1.26367 10.3203ZM20.7363 9.38281C21.0228 9.38281 21.2604 9.48047 21.4492 9.67578C21.6445 9.86458 21.7422 10.1022 21.7422 10.3887V11.4531C21.7422 12.3906 21.5339 13.2012 21.1172 13.8848C20.7005 14.5618 20.1081 15.0859 19.3398 15.457C18.5781 15.8216 17.6764 16.0039 16.6348 16.0039H9.23242V18.2012C9.23242 18.4355 9.16732 18.6178 9.03711 18.748C8.9069 18.8848 8.72461 18.9531 8.49023 18.9531C8.37956 18.9531 8.27539 18.9336 8.17773 18.8945C8.08008 18.8555 7.99219 18.8034 7.91406 18.7383L4.07617 15.5352C3.88737 15.3854 3.79297 15.2064 3.79297 14.998C3.79948 14.7897 3.89388 14.6042 4.07617 14.4414L7.91406 11.248C7.99219 11.1829 8.08008 11.1341 8.17773 11.1016C8.27539 11.0625 8.37956 11.043 8.49023 11.043C8.72461 11.043 8.9069 11.1081 9.03711 11.2383C9.16732 11.3685 9.23242 11.554 9.23242 11.7949V14.0215H16.7812C17.6862 14.0215 18.4023 13.7741 18.9297 13.2793C19.4635 12.778 19.7305 12.1042 19.7305 11.2578V10.3887C19.7305 10.1022 19.8249 9.86458 20.0137 9.67578C20.209 9.48047 20.4499 9.38281 20.7363 9.38281Z" fill="#00A3FF"/>
</svg>
