<svg width="18" height="24" viewBox="0 0 18 24" fill="none" xmlns="http://www.w3.org/2000/svg">
<path d="M10.1719 11.3633C9.83984 11.3633 9.55664 11.2493 9.32227 11.0215C9.0944 10.7871 8.98047 10.5072 8.98047 10.1816C8.98047 9.85612 9.0944 9.57617 9.32227 9.3418C9.55664 9.10742 9.83984 8.99023 10.1719 8.99023C10.4974 8.99023 10.7741 9.10742 11.002 9.3418C11.2363 9.57617 11.3535 9.85612 11.3535 10.1816C11.3535 10.5072 11.2363 10.7871 11.002 11.0215C10.7741 11.2493 10.4974 11.3633 10.1719 11.3633ZM8.31641 16.0703C8.15365 15.9792 7.99414 15.8815 7.83789 15.7773C7.68164 15.6732 7.56445 15.5332 7.48633 15.3574C7.41471 15.1816 7.42448 14.9408 7.51562 14.6348L7.94531 13.082C7.97135 12.9844 7.95508 12.9095 7.89648 12.8574C7.83789 12.8053 7.76953 12.7826 7.69141 12.7891L6.94922 12.8477L6.71484 14.4004C6.66276 14.7585 6.47721 14.9212 6.1582 14.8887C6.00195 14.8691 5.88477 14.8073 5.80664 14.7031C5.73503 14.5924 5.70898 14.4492 5.72852 14.2734L5.98242 12.3594C6.02799 12.0208 6.21354 11.8418 6.53906 11.8223L8.44336 11.6758C8.93815 11.6432 9.34505 11.6986 9.66406 11.8418C9.98958 11.9785 10.276 12.2161 10.5234 12.5547L11.4414 13.8438L12.7988 13.248C13.1243 13.0983 13.3587 13.1699 13.502 13.4629C13.5736 13.6061 13.5801 13.7428 13.5215 13.873C13.4694 13.9967 13.3685 14.0911 13.2188 14.1562L11.5 14.918C11.3893 14.9701 11.2721 14.9798 11.1484 14.9473C11.0312 14.9147 10.9368 14.8464 10.8652 14.7422L10.2793 13.8828C10.2142 13.7982 10.1393 13.7624 10.0547 13.7754C9.97005 13.7819 9.91471 13.834 9.88867 13.9316L9.49805 15.3086L11.5 16.627C11.6562 16.7311 11.7441 16.8809 11.7637 17.0762C11.7832 17.265 11.7279 17.418 11.5977 17.5352L9.74219 19.1074C9.59896 19.2376 9.45247 19.2962 9.30273 19.2832C9.15299 19.2767 9.0293 19.2246 8.93164 19.127C8.83398 19.0228 8.79167 18.8958 8.80469 18.7461C8.81771 18.5964 8.89583 18.4596 9.03906 18.3359L10.3477 17.2129L8.31641 16.0703ZM4.70312 20.7188C4.58594 20.6146 4.52083 20.4811 4.50781 20.3184C4.5013 20.1621 4.56966 20.0156 4.71289 19.8789L6.51953 18.082L7.1543 15.8457C7.25195 15.9629 7.3724 16.0801 7.51562 16.1973C7.66536 16.3145 7.8444 16.4251 8.05273 16.5293L8.23828 16.6367L7.52539 18.502C7.47982 18.6191 7.44076 18.7005 7.4082 18.7461C7.37565 18.7852 7.32357 18.8438 7.25195 18.9219L5.50391 20.6406C5.36719 20.7708 5.22396 20.8392 5.07422 20.8457C4.93099 20.8522 4.80729 20.8099 4.70312 20.7188ZM3.50195 23.5312C2.44727 23.5312 1.64974 23.2611 1.10938 22.7207C0.56901 22.1868 0.298828 21.3991 0.298828 20.3574V9.30273C0.298828 8.25456 0.56901 7.46354 1.10938 6.92969C1.64974 6.39583 2.44727 6.12891 3.50195 6.12891H14.498C15.5462 6.12891 16.3405 6.39583 16.8809 6.92969C17.4277 7.46354 17.7012 8.25456 17.7012 9.30273V20.3574C17.7012 21.3926 17.4408 22.1803 16.9199 22.7207C16.3991 23.2611 15.6732 23.5312 14.7422 23.5312H3.50195ZM3.61914 21.6074H14.6152C14.9473 21.6074 15.224 21.487 15.4453 21.2461C15.6667 21.0117 15.7773 20.6569 15.7773 20.1816V9.45898C15.7773 8.99023 15.6536 8.63867 15.4062 8.4043C15.1654 8.16341 14.8203 8.04297 14.3711 8.04297H3.61914C3.16341 8.04297 2.8151 8.16341 2.57422 8.4043C2.33984 8.63867 2.22266 8.99023 2.22266 9.45898V20.1816C2.22266 20.6569 2.33984 21.0117 2.57422 21.2461C2.8151 21.487 3.16341 21.6074 3.61914 21.6074ZM2.45703 4.58594C2.52214 4.11719 2.68164 3.75586 2.93555 3.50195C3.19596 3.24805 3.58659 3.12109 4.10742 3.12109H13.8145C14.3353 3.12109 14.7227 3.24805 14.9766 3.50195C15.237 3.75586 15.403 4.11719 15.4746 4.58594H2.45703ZM4.13672 1.74414C4.16276 1.30143 4.30599 0.966146 4.56641 0.738281C4.82682 0.510417 5.19141 0.396484 5.66016 0.396484H12.2617C12.737 0.396484 13.1016 0.510417 13.3555 0.738281C13.6159 0.966146 13.7624 1.30143 13.7949 1.74414H4.13672Z" fill="#00A3FF"/>
</svg>
