<svg width="22" height="22" viewBox="0 0 22 22" fill="none" xmlns="http://www.w3.org/2000/svg">
<path d="M6.05859 12.1699C5.83724 12.1699 5.65169 12.0951 5.50195 11.9453C5.35221 11.7956 5.27734 11.61 5.27734 11.3887C5.27734 11.1673 5.35221 10.985 5.50195 10.8418C5.65169 10.6921 5.83724 10.6172 6.05859 10.6172H10.209V4.99219C10.209 4.77734 10.2839 4.59505 10.4336 4.44531C10.5833 4.29557 10.7656 4.2207 10.9805 4.2207C11.2018 4.2207 11.3874 4.29557 11.5371 4.44531C11.6868 4.59505 11.7617 4.77734 11.7617 4.99219V11.3887C11.7617 11.61 11.6868 11.7956 11.5371 11.9453C11.3874 12.0951 11.2018 12.1699 10.9805 12.1699H6.05859ZM10.9902 21.0371C9.61003 21.0371 8.3112 20.7734 7.09375 20.2461C5.8763 19.7253 4.80208 18.9993 3.87109 18.0684C2.94661 17.1374 2.2207 16.0632 1.69336 14.8457C1.16602 13.6283 0.902344 12.3294 0.902344 10.9492C0.902344 9.56901 1.16602 8.27018 1.69336 7.05273C2.2207 5.83529 2.94661 4.76432 3.87109 3.83984C4.80208 2.90885 5.87305 2.17969 7.08398 1.65234C8.30143 1.125 9.60026 0.861328 10.9805 0.861328C12.3672 0.861328 13.6693 1.125 14.8867 1.65234C16.1042 2.17969 17.1784 2.90885 18.1094 3.83984C19.0404 4.76432 19.7695 5.83529 20.2969 7.05273C20.8242 8.27018 21.0879 9.56901 21.0879 10.9492C21.0879 12.3294 20.8242 13.6283 20.2969 14.8457C19.7695 16.0632 19.0404 17.1374 18.1094 18.0684C17.1784 18.9993 16.1042 19.7253 14.8867 20.2461C13.6693 20.7734 12.3704 21.0371 10.9902 21.0371ZM10.9902 19.0449C12.1165 19.0449 13.168 18.8366 14.1445 18.4199C15.1211 18.0033 15.9805 17.4238 16.7227 16.6816C17.4648 15.9395 18.0443 15.0801 18.4609 14.1035C18.8776 13.127 19.0859 12.0755 19.0859 10.9492C19.0859 9.82943 18.8776 8.78125 18.4609 7.80469C18.0443 6.82161 17.4648 5.95898 16.7227 5.2168C15.9805 4.47461 15.1178 3.89518 14.1348 3.47852C13.1582 3.06185 12.1068 2.85352 10.9805 2.85352C9.86068 2.85352 8.80924 3.06185 7.82617 3.47852C6.84961 3.89518 5.99349 4.47461 5.25781 5.2168C4.52214 5.95898 3.94596 6.82161 3.5293 7.80469C3.11263 8.78125 2.9043 9.82943 2.9043 10.9492C2.9043 12.0755 3.11263 13.127 3.5293 14.1035C3.94596 15.0801 4.52214 15.9395 5.25781 16.6816C6 17.4238 6.85938 18.0033 7.83594 18.4199C8.81901 18.8366 9.87044 19.0449 10.9902 19.0449Z" fill="#00A3FF"/>
</svg>
