<svg width="21" height="20" viewBox="0 0 21 20" fill="none" xmlns="http://www.w3.org/2000/svg">
<path d="M0.295898 16.3691V8.88965C0.295898 8.27441 0.477539 7.79395 0.84082 7.44824C1.20996 7.10254 1.7168 6.92969 2.36133 6.92969H4.30371V3.00098C4.30371 2.05762 4.54688 1.3457 5.0332 0.865234C5.52539 0.384766 6.24609 0.144531 7.19531 0.144531H17.8125C18.7617 0.144531 19.4795 0.384766 19.9658 0.865234C20.4521 1.3457 20.6953 2.05762 20.6953 3.00098V16.3164C20.6953 17.2539 20.4521 17.9629 19.9658 18.4434C19.4795 18.9297 18.7617 19.1729 17.8125 19.1729H3.16992C2.23242 19.1729 1.51758 18.9326 1.02539 18.4521C0.539062 17.9717 0.295898 17.2773 0.295898 16.3691ZM2.02734 16.2812C2.02734 16.6152 2.13574 16.8906 2.35254 17.1074C2.56934 17.3301 2.8418 17.4414 3.16992 17.4414C3.49219 17.4414 3.76172 17.333 3.97852 17.1162C4.19531 16.8994 4.30371 16.6211 4.30371 16.2812V8.65234H2.58105C2.40527 8.65234 2.26758 8.70215 2.16797 8.80176C2.07422 8.90137 2.02734 9.03613 2.02734 9.20605V16.2812ZM5.78027 17.4414H17.6982C18.1143 17.4414 18.4307 17.333 18.6475 17.1162C18.8643 16.9053 18.9727 16.5889 18.9727 16.167V3.15039C18.9727 2.72852 18.8643 2.40918 18.6475 2.19238C18.4307 1.97559 18.1143 1.86719 17.6982 1.86719H7.30078C6.89062 1.86719 6.57715 1.97559 6.36035 2.19238C6.14355 2.40918 6.03516 2.72852 6.03516 3.15039V16.2988C6.03516 16.7266 5.9502 17.1074 5.78027 17.4414ZM8.26758 5.62012C8.09766 5.62012 7.9541 5.56152 7.83691 5.44434C7.72559 5.32715 7.66992 5.18652 7.66992 5.02246C7.66992 4.86426 7.72559 4.72949 7.83691 4.61816C7.9541 4.50684 8.09766 4.45117 8.26758 4.45117H16.749C16.9131 4.45117 17.0508 4.50684 17.1621 4.61816C17.2793 4.72949 17.3379 4.86426 17.3379 5.02246C17.3379 5.18652 17.2793 5.32715 17.1621 5.44434C17.0508 5.56152 16.9131 5.62012 16.749 5.62012H8.26758ZM8.26758 8.65234C8.09766 8.65234 7.9541 8.59961 7.83691 8.49414C7.72559 8.38281 7.66992 8.24219 7.66992 8.07227C7.66992 7.9082 7.72559 7.77051 7.83691 7.65918C7.9541 7.54199 8.09766 7.4834 8.26758 7.4834H16.749C16.9131 7.4834 17.0508 7.54199 17.1621 7.65918C17.2793 7.77051 17.3379 7.9082 17.3379 8.07227C17.3379 8.24219 17.2793 8.38281 17.1621 8.49414C17.0508 8.59961 16.9131 8.65234 16.749 8.65234H8.26758ZM8.76855 14.7695C8.42285 14.7695 8.15039 14.6729 7.95117 14.4795C7.75781 14.2803 7.66113 14.0107 7.66113 13.6709V11.6318C7.66113 11.2861 7.75781 11.0166 7.95117 10.8232C8.15039 10.6299 8.42285 10.5332 8.76855 10.5332H10.957C11.2969 10.5332 11.5635 10.6299 11.7568 10.8232C11.9561 11.0166 12.0557 11.2861 12.0557 11.6318V13.6709C12.0557 14.0107 11.9561 14.2803 11.7568 14.4795C11.5635 14.6729 11.2969 14.7695 10.957 14.7695H8.76855ZM13.6113 11.7021C13.4414 11.7021 13.3008 11.6465 13.1895 11.5352C13.0781 11.4238 13.0225 11.2891 13.0225 11.1309C13.0225 10.9551 13.0781 10.8115 13.1895 10.7002C13.3008 10.5889 13.4414 10.5332 13.6113 10.5332H16.7402C16.9102 10.5332 17.0508 10.5889 17.1621 10.7002C17.2734 10.8115 17.3291 10.9551 17.3291 11.1309C17.3291 11.2891 17.2734 11.4238 17.1621 11.5352C17.0508 11.6465 16.9102 11.7021 16.7402 11.7021H13.6113ZM13.6113 14.7695C13.4414 14.7695 13.3008 14.7139 13.1895 14.6025C13.0781 14.4912 13.0225 14.3564 13.0225 14.1982C13.0225 14.0283 13.0781 13.8877 13.1895 13.7764C13.3008 13.6592 13.4414 13.6006 13.6113 13.6006H16.7402C16.9102 13.6006 17.0508 13.6592 17.1621 13.7764C17.2734 13.8877 17.3291 14.0283 17.3291 14.1982C17.3291 14.3564 17.2734 14.4912 17.1621 14.6025C17.0508 14.7139 16.9102 14.7695 16.7402 14.7695H13.6113Z" fill="#00A3FF"/>
</svg>
