<svg width="26" height="16" viewBox="0 0 26 16" fill="none" xmlns="http://www.w3.org/2000/svg">
<path d="M2.14062 13.6836C1.76953 13.6836 1.43424 13.5957 1.13477 13.4199C0.835286 13.2441 0.597656 13.0098 0.421875 12.7168C0.246094 12.4173 0.158203 12.082 0.158203 11.7109V5.16797C0.158203 4.79688 0.246094 4.46159 0.421875 4.16211C0.597656 3.86263 0.835286 3.625 1.13477 3.44922C1.43424 3.27344 1.76953 3.18555 2.14062 3.18555H3.53711V4.82617H2.22852C2.10482 4.82617 2.00065 4.86849 1.91602 4.95312C1.83789 5.03776 1.79883 5.14518 1.79883 5.27539V11.6133C1.79883 11.7305 1.83789 11.8314 1.91602 11.916C2.00065 12.0007 2.10482 12.043 2.22852 12.043H3.53711V13.6836H2.14062ZM5.54883 15.959C4.70898 15.959 4.05143 15.7116 3.57617 15.2168C3.10742 14.722 2.87305 14.0384 2.87305 13.166V3.73242C2.87305 2.85352 3.10091 2.16667 3.55664 1.67188C4.01237 1.17057 4.64388 0.919922 5.45117 0.919922H6.24219C7.09505 0.919922 7.76237 1.17057 8.24414 1.67188C8.73242 2.16667 8.97656 2.85352 8.97656 3.73242V13.166C8.97656 14.0384 8.73242 14.722 8.24414 15.2168C7.75586 15.7116 7.08203 15.959 6.22266 15.959H5.54883ZM5.56836 14.2109H6.19336C6.51237 14.2109 6.76302 14.1165 6.94531 13.9277C7.13411 13.7324 7.22852 13.4655 7.22852 13.127V3.77148C7.22852 3.42643 7.13737 3.15625 6.95508 2.96094C6.7793 2.76562 6.5319 2.66797 6.21289 2.66797H5.48047C5.21354 2.66797 5.00195 2.76562 4.8457 2.96094C4.69596 3.15625 4.62109 3.42643 4.62109 3.77148V13.127C4.62109 13.4655 4.70247 13.7324 4.86523 13.9277C5.03451 14.1165 5.26888 14.2109 5.56836 14.2109ZM8.50781 7.7168V5.96875H17.4824V7.7168H8.50781ZM8.50781 10.9004V9.15234H17.4824V10.9004H8.50781ZM19.7676 15.959C18.9017 15.959 18.2246 15.7116 17.7363 15.2168C17.2546 14.722 17.0137 14.0384 17.0137 13.166V3.73242C17.0137 2.85352 17.2546 2.16667 17.7363 1.67188C18.2246 1.17057 18.8952 0.919922 19.748 0.919922H20.5293C21.3366 0.919922 21.9681 1.17057 22.4238 1.67188C22.8861 2.16667 23.1172 2.85352 23.1172 3.73242V13.166C23.1172 14.0384 22.8796 14.722 22.4043 15.2168C21.929 15.7116 21.2747 15.959 20.4414 15.959H19.7676ZM19.7969 14.2109H20.4219C20.7148 14.2109 20.946 14.1165 21.1152 13.9277C21.2845 13.7324 21.3691 13.4655 21.3691 13.127V3.77148C21.3691 3.42643 21.291 3.15625 21.1348 2.96094C20.985 2.76562 20.7767 2.66797 20.5098 2.66797H19.7773C19.4583 2.66797 19.2077 2.76562 19.0254 2.96094C18.8496 3.15625 18.7617 3.42643 18.7617 3.77148V13.127C18.7617 13.4655 18.8529 13.7324 19.0352 13.9277C19.2174 14.1165 19.4714 14.2109 19.7969 14.2109ZM22.4531 13.6836V12.043H23.752C23.8757 12.043 23.9798 12.0007 24.0645 11.916C24.1491 11.8314 24.1914 11.7305 24.1914 11.6133V5.27539C24.1914 5.14518 24.1491 5.03776 24.0645 4.95312C23.9798 4.86849 23.8757 4.82617 23.752 4.82617H22.4531V3.18555H23.8496C24.2207 3.18555 24.556 3.27344 24.8555 3.44922C25.1549 3.625 25.3926 3.86263 25.5684 4.16211C25.7441 4.46159 25.832 4.79688 25.832 5.16797V11.7109C25.832 12.082 25.7441 12.4173 25.5684 12.7168C25.3926 13.0098 25.1549 13.2441 24.8555 13.4199C24.556 13.5957 24.2207 13.6836 23.8496 13.6836H22.4531Z" fill="#00A3FF"/>
</svg>
